<svg xmlns="http://www.w3.org/2000/svg" version="1.1" xmlnsXlink="http://www.w3.org/1999/xlink" xmlnsSvgjs="http://svgjs.dev/svgjs" width="400" height="100" viewBox="0 0 2200 500">

<rect width="400" height="100" x="0" y="0" fill="none"/><g>

<rect width="333.3333333333333" height="333.3333333333333" rx="13.333333333333334" ry="13.333333333333334" y="180.123399392687" fill="#2cb1bc" transform="matrix(0.7916344979234441,0,0,0.791634497923444,0,25.469036489346934)" x="157.9012298583984"/><path d="M297.74864692012176 271.7900508860584L366.1758783968074 271.7900508860584L366.1758783968074 381.03301091508945Q366.1758783968074 390.3346543019288 363.12423514055723 397.9344197189364Q360.0725918843071 405.53418513594386 354.4681316733093 410.81587538714604Q348.86367146231146 416.0975656383482 341.05850697997937 418.9438098292738Q333.2239997740295 421.79005402019936 323.9223563871902 421.79005402019936L323.9223563871902 421.79005402019936Q306.8155485180188 421.79005402019936 296.3695389100856 412.6057815278312Q285.8941865785347 403.42150903546303 282.95991421675575 388.22197820144794L282.95991421675575 388.22197820144794L299.0103840356867 384.40742413113526Q301.12306013616757 393.91446658329914 307.0209475833433 399.9297249249461Q312.94817775413685 405.94498326659294 324.36249724145705 405.94498326659294L324.36249724145705 405.94498326659294Q335.7768167287772 405.94498326659294 342.1148450302198 398.9907577691768Q348.4528733316624 392.00718954814283 348.4528733316624 377.86399676436815L348.4528733316624 377.86399676436815L348.4528733316624 287.4297225743403L297.74864692012176 287.4297225743403L297.74864692012176 271.7900508860584Z " fill="white" transform="matrix(0.7916344979234441,0,0,0.791634497923444,0,25.469036489346934)"/><path d="M587.9765846693654 410.6198397137234L587.9765846693654 307.5391664196591L600.7425420586109 307.5391664196591L600.7425420586109 402.64111634544497Q600.7425420586109 411.2625702072792 596.4428966879276 416.51522975806256Q592.1210881967767 421.7900524293133 582.8790669618542 421.7900524293133L582.8790669618542 421.7900524293133L574.5678967865641 421.7900524293133L574.5678967865641 410.6198397137234L587.9765846693654 410.6198397137234ZM594.3595633639881 288.2350884925187L594.3595633639881 288.2350884925187Q590.2150598365769 288.2350884925187 588.3755208377793 286.2404076504491Q586.5359818389817 284.24572680837946 586.5359818389817 281.05423746106806L586.5359818389817 281.05423746106806L586.5359818389817 278.9709041371287Q586.5359818389817 275.77941478981734 588.3755208377793 273.78473394774767Q590.2150598365769 271.79005310567806 594.3595633639881 271.79005310567806L594.3595633639881 271.79005310567806Q598.5040668913995 271.79005310567806 600.343605890197 273.78473394774767Q602.1831448889945 275.77941478981734 602.1831448889945 278.9709041371287L602.1831448889945 278.9709041371287L602.1831448889945 281.05423746106806Q602.1831448889945 284.24572680837946 600.343605890197 286.2404076504491Q598.5040668913995 288.2350884925187 594.3595633639881 288.2350884925187ZM658.9872226470437 391.78118731639927L658.9872226470437 391.78118731639927Q650.6982155922211 391.78118731639927 643.8276482473146 388.7670029328274Q636.9570809024082 385.7306554287881 632.1033575200388 380.0568965891234Q627.227471017202 374.4053008699261 624.5235703201743 366.49306686305Q621.7975065026791 358.6029959766413 621.7975065026791 348.69608112769555L621.7975065026791 348.69608112769555Q621.7975065026791 338.9664712424893 624.5235703201743 330.9877478742108Q627.227471017202 323.00902450593236 632.1033575200388 317.3574287867351Q636.9570809024082 311.6836699470704 643.8276482473146 308.6473224430311Q650.6982155922211 305.6109749389918 658.9872226470437 305.6109749389918L658.9872226470437 305.6109749389918Q667.2762297018663 305.6109749389918 674.0581445649032 308.6473224430311Q680.8400594279399 311.6836699470704 685.8045984126463 317.3574287867351Q690.7469742768856 323.00902450593236 693.4508749739132 330.9877478742108Q696.1769387914085 338.9664712424893 696.1769387914085 348.69608112769555L696.1769387914085 348.69608112769555Q696.1769387914085 358.6029959766413 693.4508749739132 366.49306686305Q690.7469742768856 374.4053008699261 685.8045984126463 380.0568965891234Q680.8400594279399 385.7306554287881 674.0581445649032 388.7670029328274Q667.2762297018663 391.78118731639927 658.9872226470437 391.78118731639927ZM658.9872226470437 380.45583275753734L658.9872226470437 380.45583275753734Q669.3595630258058 380.45583275753734 675.8976835637006 374.0728540629146Q682.4358041015955 367.6898753682918 682.4358041015955 354.61363429250207L682.4358041015955 354.61363429250207L682.4358041015955 342.80069108335647Q682.4358041015955 329.72445000756676 675.8976835637006 323.34147131294395Q669.3595630258058 316.9584926183212 658.9872226470437 316.9584926183212L658.9872226470437 316.9584926183212Q648.6148822682818 316.9584926183212 642.0767617303869 323.34147131294395Q635.538641192492 329.72445000756676 635.538641192492 342.80069108335647L635.538641192492 342.80069108335647L635.538641192492 354.61363429250207Q635.538641192492 367.6898753682918 642.0767617303869 374.0728540629146Q648.6148822682818 380.45583275753734 658.9872226470437 380.45583275753734ZM717.2319032354767 389.8751589561994L717.2319032354767 271.79005310567806L729.9978606247221 271.79005310567806L729.9978606247221 320.9478543024604L730.6405911182778 320.9478543024604Q733.8320804655893 313.12427277745405 739.9712648350703 309.37870541845666Q746.1104492045513 305.6109749389918 754.7319030663855 305.6109749389918L754.7319030663855 305.6109749389918Q762.4003427481198 305.6109749389918 768.6060164790031 308.6473224430311Q774.8338533303536 311.6836699470704 779.2221511829068 317.26877630486536Q783.6104490354601 322.8538826626603 785.9375766845412 330.83260603093873Q788.2425412131549 338.81132939921724 788.2425412131549 348.69608112769555L788.2425412131549 348.69608112769555Q788.2425412131549 358.6029959766413 785.9375766845412 366.58171934491975Q783.6104490354601 374.56044271319826 779.2221511829068 380.1455490709932Q774.8338533303536 385.7306554287881 768.6060164790031 388.7670029328274Q762.4003427481198 391.78118731639927 754.7319030663855 391.78118731639927L754.7319030663855 391.78118731639927Q737.9765839930005 391.78118731639927 730.6405911182778 376.4664710733981L730.6405911182778 376.4664710733981L729.9978606247221 376.4664710733981L729.9978606247221 389.8751589561994L717.2319032354767 389.8751589561994ZM751.2301300325298 380.30069091426526L751.2301300325298 380.30069091426526Q762.0678959411082 380.30069091426526 768.2957327924589 373.51877605122854Q774.5235696438094 366.7368611881919 774.5235696438094 355.7217903158741L774.5235696438094 355.7217903158741L774.5235696438094 341.69253505998444Q774.5235696438094 330.67746418766666 768.2957327924589 323.89554932463Q762.0678959411082 317.1136344615933 751.2301300325298 317.1136344615933L751.2301300325298 317.1136344615933Q746.9083215413791 317.1136344615933 743.0076123391095 318.310442966835Q739.0847400163725 319.5072514720768 736.2256974760728 321.56842167554873Q733.3444918153057 323.6517549994881 731.6822577802475 326.5994500216577Q729.9978606247221 329.5471450438272 729.9978606247221 332.9159393548781L729.9978606247221 332.9159393548781L729.9978606247221 363.5453718408805Q729.9978606247221 367.5347335250197 731.6822577802475 370.63757039046135Q733.3444918153057 373.76257037637043 736.2256974760728 375.9123930617121Q739.0847400163725 378.0622157470538 743.0076123391095 379.1925348908933Q746.9083215413791 380.30069091426526 751.2301300325298 380.30069091426526ZM822.5510516967524 389.8751589561994L809.7850943075068 389.8751589561994L809.7850943075068 307.5391664196591L822.5510516967524 307.5391664196591L822.5510516967524 320.9478543024604L823.1937821903082 320.9478543024604Q824.6343850206918 317.756364955149 826.4517608990218 314.9638117762516Q828.2912998978195 312.1712585973541 830.9287112334448 310.0879252734147Q833.5661225690703 308.00459194947535 837.0678956029258 306.80778344423356Q840.5918317572487 305.6109749389918 845.3790657782158 305.6109749389918L845.3790657782158 305.6109749389918Q853.5129309897663 305.6109749389918 860.3613352142054 309.53384726172874Q867.2319025591119 313.4345564639982 870.5785337496952 322.3662940123766L870.5785337496952 322.3662940123766L870.9109805567068 322.3662940123766Q873.127292603451 315.67303163120965 879.2886400933994 310.6420032851007Q885.4278244628804 305.6109749389918 895.9553066849144 305.6109749389918L895.9553066849144 305.6109749389918Q908.5661222308879 305.6109749389918 915.6583207804688 313.8334926324121Q922.7726824505171 322.0560103258324 922.7726824505171 337.0604428822894L922.7726824505171 337.0604428822894L922.7726824505171 389.8751589561994L910.0067250612715 389.8751589561994L910.0067250612715 339.2989180495009Q910.0067250612715 328.28384717718313 905.6849165701205 322.6987408193882Q901.3852711994373 317.1136344615933 891.965945000775 317.1136344615933L891.965945000775 317.1136344615933Q888.131725159908 317.1136344615933 884.6964414874546 318.0666486416932Q881.283320935469 319.01966282179313 878.5572571179739 320.9478543024604Q875.853356420946 322.8538826626603 874.2576117472904 325.8015776848298Q872.6618670736348 328.74927270699936 872.6618670736348 332.7386343911386L872.6618670736348 332.7386343911386L872.6618670736348 389.8751589561994L859.8959096843892 389.8751589561994L859.8959096843892 339.2989180495009Q859.8959096843892 328.28384717718313 855.5741011932382 322.6987408193882Q851.274455822555 317.1136344615933 842.1875764309045 317.1136344615933L842.1875764309045 317.1136344615933Q838.3533565900373 317.1136344615933 834.8294204357144 318.0666486416932Q831.3276474018587 319.01966282179313 828.6237467048311 320.9478543024604Q825.8976828873358 322.8538826626603 824.2354488522778 325.8015776848298Q822.5510516967524 328.74927270699936 822.5510516967524 332.7386343911386L822.5510516967524 332.7386343911386L822.5510516967524 389.8751589561994ZM1016.123745859375 389.8751589561994L1008.9428948279244 389.8751589561994Q1001.7620437964738 389.8751589561994 998.6370438105648 386.04093911533226Q995.5342069451231 382.2067192744651 994.7363346082952 376.4664710733981L994.7363346082952 376.4664710733981L993.9384622714674 376.4664710733981Q991.2123984539724 384.1349107551324 985.0067247230891 387.96913059599956Q978.7788878717383 391.78118731639927 970.1574340099041 391.78118731639927L970.1574340099041 391.78118731639927Q957.0811929341144 391.78118731639927 949.811689420794 385.08792493523237Q942.5421859074736 378.3946625540654 942.5421859074736 366.89200303146396L942.5421859074736 366.89200303146396Q942.5421859074736 355.2563647860578 951.0971504079057 349.02852793470714Q959.6299517878699 342.80069108335647 977.6485687278989 342.80069108335647L977.6485687278989 342.80069108335647L993.9384622714674 342.80069108335647L993.9384622714674 334.6668258718059Q993.9384622714674 325.89023016669955 989.1512282505003 321.2581379890046Q984.3639942295333 316.6260458113096 974.4570793805876 316.6260458113096L974.4570793805876 316.6260458113096Q966.9659446625928 316.6260458113096 961.9349163164839 319.97267700189303Q956.9038879703749 323.34147131294395 953.5572567797915 328.9265776707389L953.5572567797915 328.9265776707389L945.9109802185246 321.74572663928825Q949.257611409108 315.03030113765385 956.5936042838307 310.33171959855656Q963.9295971585534 305.6109749389918 975.0998098741434 305.6109749389918L975.0998098741434 305.6109749389918Q990.1042424306004 305.6109749389918 998.393249485423 312.9691309341819Q1006.704419660713 320.3051238089047 1006.704419660713 333.3813648846944L1006.704419660713 333.3813648846944L1006.704419660713 378.70494624060956L1016.123745859375 378.70494624060956L1016.123745859375 389.8751589561994ZM972.2407673338435 380.943421407821L972.2407673338435 380.943421407821Q977.0280013548106 380.943421407821 981.0173630389497 379.8131022639816Q985.0067247230891 378.70494624060956 987.8657672633888 376.6216129166702Q990.7469729241561 374.56044271319826 992.3427175978118 371.83437889570314Q993.9384622714674 369.1304781986754 993.9384622714674 365.938988851364L993.9384622714674 365.938988851364L993.9384622714674 352.3751591252906L977.0280013548106 352.3751591252906Q966.0129304824927 352.3751591252906 960.981902136384 355.56664847260197Q955.950873790275 358.7581378199134 955.950873790275 364.830832827992L955.950873790275 364.830832827992L955.950873790275 368.1774640185755Q955.950873790275 374.22799590618666 960.3391716428282 377.5967902172375Q964.7274694953812 380.943421407821 972.2407673338435 380.943421407821ZM1034.2975046426764 421.7900524293133L1034.2975046426764 307.5391664196591L1047.0634620319215 307.5391664196591L1047.0634620319215 320.9478543024604L1047.7061925254775 320.9478543024604Q1050.8976818727888 313.12427277745405 1057.0368662422698 309.37870541845666Q1063.1982137322184 305.6109749389918 1071.797504473585 305.6109749389918L1071.797504473585 305.6109749389918Q1079.4659441553194 305.6109749389918 1085.6937810066702 308.6473224430311Q1091.9216178580205 311.6836699470704 1096.309915710574 317.26877630486536Q1100.698213563127 322.8538826626603 1103.0031780917407 330.83260603093873Q1105.3081426203544 338.81132939921724 1105.3081426203544 348.69608112769555L1105.3081426203544 348.69608112769555Q1105.3081426203544 358.6029959766413 1103.0031780917407 366.58171934491975Q1100.698213563127 374.56044271319826 1096.309915710574 380.1455490709932Q1091.9216178580205 385.7306554287881 1085.6937810066702 388.7670029328274Q1079.4659441553194 391.78118731639927 1071.797504473585 391.78118731639927L1071.797504473585 391.78118731639927Q1055.0421854002002 391.78118731639927 1047.7061925254775 376.4664710733981L1047.7061925254775 376.4664710733981L1047.0634620319215 376.4664710733981L1047.0634620319215 421.7900524293133L1034.2975046426764 421.7900524293133ZM1068.2957314397295 380.30069091426526L1068.2957314397295 380.30069091426526Q1079.1556604687753 380.30069091426526 1085.3613341996584 373.51877605122854Q1091.589171051009 366.7368611881919 1091.589171051009 355.7217903158741L1091.589171051009 355.7217903158741L1091.589171051009 341.69253505998444Q1091.589171051009 330.67746418766666 1085.3613341996584 323.89554932463Q1079.1556604687753 317.1136344615933 1068.2957314397295 317.1136344615933L1068.2957314397295 317.1136344615933Q1063.9960860690462 317.1136344615933 1060.0732137463092 318.310442966835Q1056.1725045440398 319.5072514720768 1053.2912988832722 321.56842167554873Q1050.4322563429728 323.6517549994881 1048.7478591874474 326.5994500216577Q1047.0634620319215 329.5471450438272 1047.0634620319215 332.9159393548781L1047.0634620319215 332.9159393548781L1047.0634620319215 363.5453718408805Q1047.0634620319215 367.5347335250197 1048.7478591874474 370.63757039046135Q1050.4322563429728 373.76257037637043 1053.2912988832722 375.9123930617121Q1056.1725045440398 378.0622157470538 1060.0732137463092 379.1925348908933Q1063.9960860690462 380.30069091426526 1068.2957314397295 380.30069091426526Z " fill="#2cb1bc" transform="matrix(0.7916344979234441,0,0,0.791634497923444,0,25.469036489346934)"/></g></svg>